<?xml version="1.0" standalone="no"?>
<!DOCTYPE svg PUBLIC "-//W3C//DTD SVG 20010904//EN"
 "http://www.w3.org/TR/2001/REC-SVG-20010904/DTD/svg10.dtd">
<svg version="1.0" xmlns="http://www.w3.org/2000/svg"
 width="225.000000pt" height="226.000000pt" viewBox="0 0 225.000000 226.000000"
 preserveAspectRatio="xMidYMid meet">

<g transform="translate(0.000000,226.000000) scale(0.100000,-0.100000)"
fill="#000000" stroke="none">
<path d="M875 1872 c-211 -74 -341 -281 -307 -487 24 -148 111 -269 237 -331
187 -92 383 -60 498 81 92 115 157 285 143 378 l-7 45 -62 14 c-57 12 -62 16
-65 41 -3 26 -1 27 25 22 15 -4 42 -11 58 -16 27 -8 28 -7 12 5 -11 8 -36 18
-58 21 -30 5 -40 12 -45 31 -9 34 -2 38 41 19 21 -8 40 -13 43 -11 2 3 -25 35
-62 72 -37 37 -69 64 -71 62 -3 -3 1 -23 9 -45 40 -114 49 -348 16 -436 -62
-164 -247 -240 -402 -164 -228 112 -230 416 -3 535 45 23 61 26 155 27 l105 0
3 -30 3 -30 -98 0 c-81 0 -105 -4 -138 -22 -86 -46 -135 -123 -135 -213 0
-209 259 -315 402 -163 51 53 68 108 68 218 0 116 -22 278 -45 327 -8 18 -13
25 -10 16 20 -76 36 -207 38 -319 2 -121 0 -138 -20 -174 -78 -146 -255 -169
-365 -47 -76 85 -76 199 0 284 55 61 100 78 210 78 l92 0 0 -30 0 -30 -83 0
c-139 0 -211 -54 -211 -160 0 -53 25 -102 67 -134 41 -30 140 -30 183 1 54 39
64 74 64 230 0 138 -22 319 -41 338 -19 19 -189 17 -244 -3z"/>
<path d="M1360 877 c-75 -37 -81 -229 -9 -268 39 -20 124 -16 156 7 72 53 66
221 -8 260 -34 17 -105 18 -139 1z m130 -76 c15 -29 12 -93 -6 -119 -18 -27
-84 -31 -108 -6 -19 19 -22 114 -4 132 7 7 33 12 60 12 37 0 50 -4 58 -19z"/>
<path d="M577 873 c-4 -3 -7 -53 -7 -110 l0 -103 -36 0 c-34 0 -35 -1 -32 -32
3 -32 4 -33 52 -32 77 1 86 19 86 165 l0 119 -28 0 c-16 0 -32 -3 -35 -7z"/>
<path d="M748 863 c-8 -10 -25 -67 -38 -128 -12 -60 -25 -116 -27 -122 -4 -9
5 -13 26 -13 36 0 34 -4 57 105 l18 80 16 -70 c20 -86 25 -95 54 -95 32 0 42
15 57 88 12 56 29 84 29 46 0 -8 7 -46 16 -85 15 -67 17 -69 46 -69 26 0 29 3
25 23 -3 12 -16 71 -28 131 -19 92 -26 110 -46 119 -41 19 -68 -3 -83 -69
l-14 -59 -12 53 c-6 29 -17 59 -24 67 -17 20 -54 19 -72 -2z"/>
<path d="M1034 866 c-13 -34 0 -51 44 -54 l42 -3 0 -105 0 -104 35 0 35 0 0
104 0 105 38 3 c34 3 37 6 40 36 l3 32 -116 0 c-91 0 -117 -3 -121 -14z"/>
</g>
</svg>
